<svg version="1.1" id="Layer_1" xmlns="http://www.w3.org/2000/svg" xmlns:xlink="http://www.w3.org/1999/xlink" x="0px" y="0px"
	 width="100%" viewBox="0 0 512 512" enable-background="new 0 0 512 512" xml:space="preserve">
<path fill="#1ABC9C" opacity="1.000000" stroke="transparent" 
	d="
M1.000008,421.000000 
	C1.000000,311.978577 1.000000,202.957138 1.255525,93.811386 
	C4.337018,88.786072 6.667000,83.502853 10.089603,79.061661 
	C17.815760,69.036156 28.044394,62.149071 40.912632,62.130581 
	C184.894989,61.923721 328.877747,61.997597 472.860382,62.027863 
	C474.644531,62.028236 476.471558,62.271778 478.206024,62.697521 
	C494.359039,66.662491 505.343140,76.415115 510.979065,92.123688 
	C511.292297,92.996765 511.876892,93.772484 512.335205,94.593513 
	C512.556824,94.395676 512.778381,94.197838 513.000000,94.000000 
	C513.000000,202.354767 513.000000,310.709534 512.714600,419.197662 
	C511.617615,421.057922 510.706696,422.745789 510.009888,424.517853 
	C503.931946,439.974731 488.829346,451.823303 472.936127,451.851349 
	C328.996948,452.105194 185.057144,452.001251 41.117527,451.983582 
	C39.471699,451.983398 37.756638,451.993408 36.190834,451.568115 
	C20.756756,447.376007 9.240614,438.652710 3.529999,423.199371 
	C3.190300,422.280151 1.866096,421.724701 1.000008,421.000000 
M434.504150,118.004173 
	C442.910126,109.622498 451.316101,101.240822 460.291443,92.291435 
	C324.351196,92.291435 189.532257,92.291435 53.613720,92.291435 
	C122.048218,160.204971 189.782440,227.423553 257.700623,294.824707 
	C316.929230,235.590378 375.466705,177.047272 434.504150,118.004173 
M245.500000,421.999969 
	C316.750488,421.999969 388.001007,421.999969 458.919556,421.999969 
	C411.689606,374.767029 364.543488,327.617950 317.182159,280.253632 
	C302.245667,295.201355 286.700500,310.277161 271.748779,325.920227 
	C264.044891,333.980286 251.990555,334.001373 244.359802,326.030701 
	C230.073593,311.108185 215.229294,296.719818 200.605545,282.120880 
	C199.463379,280.980621 198.230255,279.931519 197.636292,279.387146 
	C149.945404,327.066772 102.530930,374.470062 54.989780,421.999969 
	C117.997711,421.999969 181.248856,421.999969 245.500000,421.999969 
M31.000069,145.500000 
	C31.000069,229.783218 31.000069,314.066437 31.000069,398.005829 
	C78.695534,350.310730 126.121140,302.885468 171.521988,257.484955 
	C125.322372,209.889267 78.786316,161.946976 32.250259,114.004684 
	C31.833530,114.250237 31.416800,114.495796 31.000069,114.741356 
	C31.000069,124.660904 31.000069,134.580460 31.000069,145.500000 
M482.999969,187.500000 
	C482.999969,163.535446 482.999969,139.570877 482.999969,115.821075 
	C435.575317,163.245178 388.503540,210.316376 342.085632,256.733734 
	C388.867249,303.511719 435.982788,350.623566 482.999969,397.637115 
	C482.999969,328.304291 482.999969,258.402161 482.999969,187.500000 
z"/>
<path fill="#000000" opacity="1.000000" stroke="none" 
	d="
M1.000008,421.468628 
	C1.866096,421.724701 3.190300,422.280151 3.529999,423.199371 
	C9.240614,438.652710 20.756756,447.376007 36.190834,451.568115 
	C37.756638,451.993408 39.471699,451.983398 41.117527,451.983582 
	C185.057144,452.001251 328.996948,452.105194 472.936127,451.851349 
	C488.829346,451.823303 503.931946,439.974731 510.009888,424.517853 
	C510.706696,422.745789 511.617615,421.057922 512.714600,419.665527 
	C513.000000,450.980530 513.000000,481.961060 513.000000,512.940918 
	C342.333313,512.940186 171.666656,512.940186 1.000000,512.940186 
	C1.000000,482.565979 1.000000,452.251648 1.000008,421.468628 
z"/>
<path fill="#000000" opacity="1.000000" stroke="none" 
	d="
M513.000000,93.531342 
	C512.778381,94.197838 512.556824,94.395676 512.335205,94.593513 
	C511.876892,93.772484 511.292297,92.996765 510.979065,92.123688 
	C505.343140,76.415115 494.359039,66.662491 478.206024,62.697521 
	C476.471558,62.271778 474.644531,62.028236 472.860382,62.027863 
	C328.877747,61.997597 184.894989,61.923721 40.912632,62.130581 
	C28.044394,62.149071 17.815760,69.036156 10.089603,79.061661 
	C6.667000,83.502853 4.337018,88.786072 1.255525,93.343529 
	C1.000000,62.352581 1.000000,31.705162 1.000004,1.059020 
	C171.666672,1.060297 342.333344,1.060297 513.000000,1.060297 
	C513.000000,31.767956 513.000000,62.415321 513.000000,93.531342 
z"/>
<path fill="#000000" opacity="1.000000" stroke="none" 
	d="
M434.254150,118.254173 
	C375.466705,177.047272 316.929230,235.590378 257.700623,294.824707 
	C189.782440,227.423553 122.048218,160.204971 53.613720,92.291435 
	C189.532257,92.291435 324.351196,92.291435 460.291443,92.291435 
	C451.316101,101.240822 442.910126,109.622498 434.254150,118.254173 
z"/>
<path fill="#000000" opacity="1.000000" stroke="none" 
	d="
M245.000000,421.999969 
	C181.248856,421.999969 117.997711,421.999969 54.989780,421.999969 
	C102.530930,374.470062 149.945404,327.066772 197.636292,279.387146 
	C198.230255,279.931519 199.463379,280.980621 200.605545,282.120880 
	C215.229294,296.719818 230.073593,311.108185 244.359802,326.030701 
	C251.990555,334.001373 264.044891,333.980286 271.748779,325.920227 
	C286.700500,310.277161 302.245667,295.201355 317.182159,280.253632 
	C364.543488,327.617950 411.689606,374.767029 458.919556,421.999969 
	C388.001007,421.999969 316.750488,421.999969 245.000000,421.999969 
z"/>
<path fill="#000000" opacity="1.000000" stroke="none" 
	d="
M31.000069,145.000000 
	C31.000069,134.580460 31.000069,124.660904 31.000069,114.741356 
	C31.416800,114.495796 31.833530,114.250237 32.250259,114.004684 
	C78.786316,161.946976 125.322372,209.889267 171.521988,257.484955 
	C126.121140,302.885468 78.695534,350.310730 31.000069,398.005829 
	C31.000069,314.066437 31.000069,229.783218 31.000069,145.000000 
z"/>
<path fill="#000000" opacity="1.000000" stroke="none" 
	d="
M482.999969,188.000000 
	C482.999969,258.402161 482.999969,328.304291 482.999969,397.637115 
	C435.982788,350.623566 388.867249,303.511719 342.085632,256.733734 
	C388.503540,210.316376 435.575317,163.245178 482.999969,115.821075 
	C482.999969,139.570877 482.999969,163.535446 482.999969,188.000000 
z"/>
</svg>