<svg version="1.1" id="Layer_1" xmlns="http://www.w3.org/2000/svg" xmlns:xlink="http://www.w3.org/1999/xlink" x="0px" y="0px"
	 width="100%" viewBox="0 0 512 512" enable-background="new 0 0 512 512" xml:space="preserve">
<path fill="#1ABC9C" opacity="1.000000" stroke="transparent" 
	d="
M1.000001,457.000000 
	C1.000000,334.644012 1.000000,212.288055 1.229278,89.808403 
	C6.586064,82.148232 14.044650,80.628380 22.274508,82.233826 
	C37.780556,85.258682 53.199303,88.731575 68.708618,91.738220 
	C69.900490,91.969276 72.335350,90.298767 72.818367,89.000786 
	C80.264786,68.990593 92.976692,52.890003 109.668724,39.981686 
	C125.780190,27.522327 144.289276,19.959257 164.511017,18.193882 
	C187.984390,16.144636 210.624405,19.639803 231.556442,31.737595 
	C245.643234,39.879128 257.794922,50.050735 266.922028,63.386414 
	C273.054138,72.346085 277.911804,82.178001 283.473236,91.852028 
	C290.367737,90.429665 297.815369,88.682449 305.341095,87.389778 
	C316.764954,85.427528 328.217834,82.622284 339.706146,82.372635 
	C348.644196,82.178413 357.668457,85.266518 366.630798,87.016624 
	C385.998749,90.798683 405.352020,94.656059 424.710449,98.486870 
	C444.097900,102.323425 463.562988,105.814964 482.839447,110.145821 
	C493.153625,112.463120 505.102661,111.233360 512.396301,121.589020 
	C512.597534,121.392685 512.798767,121.196342 513.000000,121.000000 
	C513.000000,243.355972 513.000000,365.711945 512.776611,488.191711 
	C507.704193,495.037720 501.010284,497.233093 493.088989,495.949066 
	C487.453827,495.035614 481.871246,493.793304 476.271637,492.665802 
	C455.338531,488.450836 434.409973,484.213593 413.476166,480.002167 
	C394.295319,476.143433 375.119934,472.256439 355.921173,468.488556 
	C349.198853,467.169250 342.329315,464.890686 335.678680,465.332611 
	C326.648560,465.932648 317.773834,468.773682 308.815247,470.567505 
	C289.628082,474.409363 270.424347,478.168640 251.237717,482.013214 
	C232.067398,485.854492 212.946213,489.954712 193.727936,493.535919 
	C186.338837,494.912811 178.470627,496.816711 171.288162,495.636353 
	C147.646790,491.751007 124.215202,486.584625 100.711014,481.870575 
	C76.096046,476.933716 51.453182,472.125244 26.900002,466.896759 
	C17.917692,464.984070 7.628946,465.681580 1.606347,456.415131 
	C1.404233,456.610077 1.202118,456.805054 1.000001,457.000000 
M352.000031,315.500000 
	C352.000031,321.830200 352.000031,328.160370 352.000031,334.490570 
	C352.000092,366.807495 352.015137,399.124451 351.972076,431.441315 
	C351.968597,434.049713 351.896301,436.365479 355.257263,436.972473 
	C362.319427,438.247894 369.365570,439.615479 376.406494,441.004883 
	C395.925598,444.856628 415.436737,448.748718 434.954773,452.606018 
	C450.798340,455.737183 466.647278,458.841187 482.704376,461.998657 
	C482.815002,460.626129 482.987488,459.484375 482.987640,458.342621 
	C483.000153,354.228821 482.984711,250.115021 483.065552,146.001297 
	C483.068176,142.639755 481.873230,141.535522 478.696075,140.929764 
	C457.880676,136.961075 437.099518,132.811218 416.319397,128.659485 
	C395.073456,124.414696 373.841461,120.100014 352.000031,115.694229 
	C352.000031,182.315536 352.000031,248.407761 352.000031,315.500000 
M31.000071,338.500000 
	C31.000126,369.491791 31.016745,400.483582 30.970417,431.475311 
	C30.966494,434.100922 30.945070,436.377045 34.292603,436.977722 
	C41.357796,438.245453 48.405422,439.614746 55.447639,441.006226 
	C74.970421,444.863739 94.483612,448.769836 114.006615,452.626282 
	C129.839157,455.753784 145.680405,458.837219 161.999924,462.034698 
	C161.999924,459.876495 161.999924,458.069641 161.999924,456.262756 
	C161.999924,418.605957 161.808716,380.947510 162.125397,343.293396 
	C162.211823,333.016327 162.101852,323.261536 154.200272,315.420929 
	C153.203964,314.432312 152.864838,312.814575 152.062271,311.592712 
	C128.445709,275.636993 105.973976,239.003937 87.600731,200.037964 
	C76.436378,176.360596 64.978104,152.675919 65.873398,125.411362 
	C65.909576,124.309555 64.355751,122.368279 63.265003,122.138916 
	C52.746422,119.927071 42.168224,117.998734 31.000071,115.873825 
	C31.000071,189.976730 31.000071,263.738373 31.000071,338.500000 
M200.920822,313.394012 
	C199.376694,315.709595 197.965546,318.128723 196.260269,320.318817 
	C192.885788,324.652649 191.857788,329.385803 191.886703,334.920624 
	C192.097336,375.241730 192.000061,415.564453 192.000076,455.886658 
	C192.000076,457.848633 192.000076,459.810638 192.000076,461.944458 
	C206.424011,459.197601 220.354294,456.674408 234.228867,453.875061 
	C261.678436,448.336884 289.062439,442.464417 316.563354,437.199036 
	C321.095703,436.331268 322.082153,434.869415 322.078064,430.650299 
	C321.978149,327.512177 322.001160,224.373947 321.989563,121.235733 
	C321.989380,119.526611 321.833344,117.817505 321.740021,115.902634 
	C311.359406,118.019279 301.653625,120.218750 291.854919,121.865387 
	C288.815857,122.376076 287.887451,123.388344 287.963989,126.240456 
	C288.084595,130.734848 288.603394,135.348892 287.834961,139.715408 
	C283.284271,165.573639 272.297180,189.144241 260.721191,212.363007 
	C253.142349,227.564392 244.652771,242.348740 235.911575,256.924316 
	C224.643509,275.713348 212.716110,294.106995 200.920822,313.394012 
M240.920013,181.376755 
	C247.661896,166.832977 254.833221,152.189697 256.723175,136.231720 
	C259.421478,113.448395 252.658035,92.796173 237.102890,75.765976 
	C219.729645,56.745304 198.200912,47.259422 171.944168,48.840572 
	C161.397812,49.475662 151.475143,51.827534 142.259644,56.471527 
	C124.578224,65.381798 111.291496,78.695915 103.303329,97.165253 
	C96.682465,112.473236 94.186928,128.304657 99.187668,144.166779 
	C104.026459,159.515152 109.612724,174.858032 116.941696,189.140594 
	C129.934692,214.461151 144.327515,239.073456 158.484131,263.781860 
	C164.050461,273.497131 170.555313,282.674683 177.053757,292.749786 
	C200.253021,256.444397 222.624390,220.529083 240.920013,181.376755 
z"/>
<path fill="#000000" opacity="1.000000" stroke="none" 
	d="
M513.000000,120.531342 
	C512.798767,121.196342 512.597534,121.392685 512.396301,121.589020 
	C505.102661,111.233360 493.153625,112.463120 482.839447,110.145821 
	C463.562988,105.814964 444.097900,102.323425 424.710449,98.486870 
	C405.352020,94.656059 385.998749,90.798683 366.630798,87.016624 
	C357.668457,85.266518 348.644196,82.178413 339.706146,82.372635 
	C328.217834,82.622284 316.764954,85.427528 305.341095,87.389778 
	C297.815369,88.682449 290.367737,90.429665 283.473236,91.852028 
	C277.911804,82.178001 273.054138,72.346085 266.922028,63.386414 
	C257.794922,50.050735 245.643234,39.879128 231.556442,31.737595 
	C210.624405,19.639803 187.984390,16.144636 164.511017,18.193882 
	C144.289276,19.959257 125.780190,27.522327 109.668724,39.981686 
	C92.976692,52.890003 80.264786,68.990593 72.818367,89.000786 
	C72.335350,90.298767 69.900490,91.969276 68.708618,91.738220 
	C53.199303,88.731575 37.780556,85.258682 22.274508,82.233826 
	C14.044650,80.628380 6.586064,82.148232 1.229278,89.342361 
	C1.000000,59.684486 1.000000,30.368977 1.000000,1.026732 
	C171.545166,1.026732 342.090332,1.026732 513.000000,1.026732 
	C513.000000,40.686817 513.000000,80.374748 513.000000,120.531342 
z"/>
<path fill="#000000" opacity="1.000000" stroke="none" 
	d="
M1.000001,457.468658 
	C1.202118,456.805054 1.404233,456.610077 1.606347,456.415131 
	C7.628946,465.681580 17.917692,464.984070 26.900002,466.896759 
	C51.453182,472.125244 76.096046,476.933716 100.711014,481.870575 
	C124.215202,486.584625 147.646790,491.751007 171.288162,495.636353 
	C178.470627,496.816711 186.338837,494.912811 193.727936,493.535919 
	C212.946213,489.954712 232.067398,485.854492 251.237717,482.013214 
	C270.424347,478.168640 289.628082,474.409363 308.815247,470.567505 
	C317.773834,468.773682 326.648560,465.932648 335.678680,465.332611 
	C342.329315,464.890686 349.198853,467.169250 355.921173,468.488556 
	C375.119934,472.256439 394.295319,476.143433 413.476166,480.002167 
	C434.409973,484.213593 455.338531,488.450836 476.271637,492.665802 
	C481.871246,493.793304 487.453827,495.035614 493.088989,495.949066 
	C501.010284,497.233093 507.704193,495.037720 512.776611,488.657745 
	C513.000000,496.994080 513.000000,504.988159 513.000000,512.948364 
	C342.333313,512.948364 171.666656,512.948364 1.000000,512.948364 
	C1.000000,494.576965 1.000000,476.257141 1.000001,457.468658 
z"/>
<path fill="#000000" opacity="1.000000" stroke="none" 
	d="
M352.000031,315.000000 
	C352.000031,248.407761 352.000031,182.315536 352.000031,115.694229 
	C373.841461,120.100014 395.073456,124.414696 416.319397,128.659485 
	C437.099518,132.811218 457.880676,136.961075 478.696075,140.929764 
	C481.873230,141.535522 483.068176,142.639755 483.065552,146.001297 
	C482.984711,250.115021 483.000153,354.228821 482.987640,458.342621 
	C482.987488,459.484375 482.815002,460.626129 482.704376,461.998657 
	C466.647278,458.841187 450.798340,455.737183 434.954773,452.606018 
	C415.436737,448.748718 395.925598,444.856628 376.406494,441.004883 
	C369.365570,439.615479 362.319427,438.247894 355.257263,436.972473 
	C351.896301,436.365479 351.968597,434.049713 351.972076,431.441315 
	C352.015137,399.124451 352.000092,366.807495 352.000031,334.490570 
	C352.000031,328.160370 352.000031,321.830200 352.000031,315.000000 
z"/>
<path fill="#000000" opacity="1.000000" stroke="none" 
	d="
M31.000071,338.000000 
	C31.000071,263.738373 31.000071,189.976730 31.000071,115.873825 
	C42.168224,117.998734 52.746422,119.927071 63.265003,122.138916 
	C64.355751,122.368279 65.909576,124.309555 65.873398,125.411362 
	C64.978104,152.675919 76.436378,176.360596 87.600731,200.037964 
	C105.973976,239.003937 128.445709,275.636993 152.062271,311.592712 
	C152.864838,312.814575 153.203964,314.432312 154.200272,315.420929 
	C162.101852,323.261536 162.211823,333.016327 162.125397,343.293396 
	C161.808716,380.947510 161.999924,418.605957 161.999924,456.262756 
	C161.999924,458.069641 161.999924,459.876495 161.999924,462.034698 
	C145.680405,458.837219 129.839157,455.753784 114.006615,452.626282 
	C94.483612,448.769836 74.970421,444.863739 55.447639,441.006226 
	C48.405422,439.614746 41.357796,438.245453 34.292603,436.977722 
	C30.945070,436.377045 30.966494,434.100922 30.970417,431.475311 
	C31.016745,400.483582 31.000126,369.491791 31.000071,338.000000 
z"/>
<path fill="#000000" opacity="1.000000" stroke="none" 
	d="
M200.996750,313.032471 
	C212.716110,294.106995 224.643509,275.713348 235.911575,256.924316 
	C244.652771,242.348740 253.142349,227.564392 260.721191,212.363007 
	C272.297180,189.144241 283.284271,165.573639 287.834961,139.715408 
	C288.603394,135.348892 288.084595,130.734848 287.963989,126.240456 
	C287.887451,123.388344 288.815857,122.376076 291.854919,121.865387 
	C301.653625,120.218750 311.359406,118.019279 321.740021,115.902634 
	C321.833344,117.817505 321.989380,119.526611 321.989563,121.235733 
	C322.001160,224.373947 321.978149,327.512177 322.078064,430.650299 
	C322.082153,434.869415 321.095703,436.331268 316.563354,437.199036 
	C289.062439,442.464417 261.678436,448.336884 234.228867,453.875061 
	C220.354294,456.674408 206.424011,459.197601 192.000076,461.944458 
	C192.000076,459.810638 192.000076,457.848633 192.000076,455.886658 
	C192.000061,415.564453 192.097336,375.241730 191.886703,334.920624 
	C191.857788,329.385803 192.885788,324.652649 196.260269,320.318817 
	C197.965546,318.128723 199.376694,315.709595 200.996750,313.032471 
z"/>
<path fill="#000000" opacity="1.000000" stroke="none" 
	d="
M240.704956,181.693146 
	C222.624390,220.529083 200.253021,256.444397 177.053757,292.749786 
	C170.555313,282.674683 164.050461,273.497131 158.484131,263.781860 
	C144.327515,239.073456 129.934692,214.461151 116.941696,189.140594 
	C109.612724,174.858032 104.026459,159.515152 99.187668,144.166779 
	C94.186928,128.304657 96.682465,112.473236 103.303329,97.165253 
	C111.291496,78.695915 124.578224,65.381798 142.259644,56.471527 
	C151.475143,51.827534 161.397812,49.475662 171.944168,48.840572 
	C198.200912,47.259422 219.729645,56.745304 237.102890,75.765976 
	C252.658035,92.796173 259.421478,113.448395 256.723175,136.231720 
	C254.833221,152.189697 247.661896,166.832977 240.704956,181.693146 
M188.374039,175.022202 
	C205.778580,170.682526 217.556793,159.762848 222.384872,142.799530 
	C227.259308,125.673256 223.883408,109.553818 211.520615,96.053734 
	C198.253052,81.565681 172.570190,76.850388 153.539734,87.685425 
	C134.129791,98.736519 126.978638,118.772972 130.604782,138.929230 
	C132.762833,150.924835 139.199905,160.861084 149.446198,167.902313 
	C161.046478,175.874008 173.860214,177.779282 188.374039,175.022202 
z"/>
<path fill="#1ABC9C" opacity="1.000000" stroke="none" 
	d="
M187.941254,175.075516 
	C173.860214,177.779282 161.046478,175.874008 149.446198,167.902313 
	C139.199905,160.861084 132.762833,150.924835 130.604782,138.929230 
	C126.978638,118.772972 134.129791,98.736519 153.539734,87.685425 
	C172.570190,76.850388 198.253052,81.565681 211.520615,96.053734 
	C223.883408,109.553818 227.259308,125.673256 222.384872,142.799530 
	C217.556793,159.762848 205.778580,170.682526 187.941254,175.075516 
M172.282471,144.741074 
	C173.768616,144.827499 175.259460,144.865509 176.740128,145.008545 
	C183.914261,145.701691 188.946091,141.824310 191.681488,136.088409 
	C194.628632,129.908463 194.031998,123.023506 189.067230,117.761566 
	C184.587845,113.014053 178.686081,111.467415 172.208923,113.275749 
	C165.502243,115.148186 161.139404,120.790802 160.999466,127.628677 
	C160.816147,136.586639 164.136093,141.765198 172.282471,144.741074 
z"/>
<path fill="#000000" opacity="1.000000" stroke="none" 
	d="
M171.958466,144.479248 
	C164.136093,141.765198 160.816147,136.586639 160.999466,127.628677 
	C161.139404,120.790802 165.502243,115.148186 172.208923,113.275749 
	C178.686081,111.467415 184.587845,113.014053 189.067230,117.761566 
	C194.031998,123.023506 194.628632,129.908463 191.681488,136.088409 
	C188.946091,141.824310 183.914261,145.701691 176.740128,145.008545 
	C175.259460,144.865509 173.768616,144.827499 171.958466,144.479248 
z"/>
</svg>