<svg version="1.1" id="Layer_1" xmlns="http://www.w3.org/2000/svg" xmlns:xlink="http://www.w3.org/1999/xlink" x="0px" y="0px"
	 width="100%" viewBox="0 0 512 512" enable-background="new 0 0 512 512" xml:space="preserve">
<path fill="#000000" opacity="1.000000" stroke="transparent" 
	d="
M513.000000,265.000000 
	C513.000000,296.687561 513.000000,328.375122 512.769409,360.869446 
	C509.159271,357.423676 505.741669,353.192841 499.989868,352.073303 
	C495.985382,351.293823 491.928314,350.768921 487.944519,349.901642 
	C454.677338,342.659454 421.399384,335.463837 388.176697,328.021942 
	C378.659180,325.890015 371.048157,327.701691 364.182007,335.110382 
	C353.997742,346.099396 343.058289,356.386871 332.501740,367.033875 
	C330.076691,369.479706 327.901184,372.172974 325.889282,374.438782 
	C235.708115,329.559021 170.411469,252.980423 140.118607,188.291458 
	C153.853714,174.587891 167.658142,160.837250 181.433929,147.057983 
	C185.767990,142.722839 188.111862,137.418457 186.879074,131.365723 
	C183.236099,113.479332 179.232239,95.666626 175.400009,77.818558 
	C171.909805,61.563404 168.699051,45.243481 164.902695,29.060587 
	C162.582291,19.169241 163.179489,7.745767 152.423508,1.612299 
	C152.615677,1.408200 152.807831,1.204101 153.000000,1.000001 
	C184.687561,1.000000 216.375122,1.000000 248.869446,1.232954 
	C249.069229,1.984830 248.524353,2.609976 247.845901,3.006641 
	C238.564545,8.433000 238.748917,24.260262 246.459747,30.000910 
	C251.296982,33.602180 256.976196,33.883465 262.399323,33.857437 
	C277.139160,33.786697 291.561981,35.855930 305.867310,39.016113 
	C343.776398,47.390575 377.081299,64.989769 405.947906,90.665581 
	C422.236511,105.153687 436.075439,121.879959 447.449188,140.701874 
	C468.243225,175.112900 479.772552,212.041916 480.077545,252.376724 
	C480.105499,256.068451 480.835205,259.867706 481.901337,263.418152 
	C485.462616,275.278046 503.808868,276.496155 510.703979,266.772339 
	C511.238800,266.018097 512.224121,265.583282 513.000000,265.000000 
M247.835999,94.945076 
	C249.820984,95.629745 251.763580,96.711380 253.798477,96.928780 
	C261.643738,97.766937 269.528320,98.230293 277.380127,99.014603 
	C292.949860,100.569832 307.765503,105.073700 321.921753,111.516510 
	C347.840485,123.312660 369.595825,140.447952 386.161316,163.753525 
	C396.259094,177.959793 403.814392,193.406570 409.258392,210.091461 
	C414.583252,226.410934 415.510498,243.185425 416.990997,259.976196 
	C417.752319,268.610474 424.510712,273.348755 435.700531,272.999268 
	C442.710724,272.780304 448.815338,266.286804 449.019318,259.061035 
	C449.388580,245.980438 448.636597,233.005966 446.006165,220.155701 
	C441.579712,198.531418 434.122314,178.092514 422.684235,159.141052 
	C412.246704,141.847412 399.853485,126.293129 384.586395,112.892540 
	C371.277588,101.210838 357.001678,90.884727 340.932678,83.844681 
	C326.387787,77.472351 310.984711,72.862495 295.665710,68.511826 
	C281.942810,64.614441 267.626495,64.545753 253.400314,65.034805 
	C252.466385,65.066902 251.547485,65.528755 250.621094,65.788956 
	C239.369720,68.949127 236.999084,87.687767 247.835999,94.945076 
M321.992432,187.490738 
	C325.572388,191.404449 329.477020,195.071243 332.674500,199.275803 
	C344.782837,215.197647 351.723816,233.028839 352.076630,253.253525 
	C352.135406,256.625305 352.721802,260.156952 353.893066,263.306580 
	C356.697845,270.848785 361.262970,273.184967 371.291931,272.999756 
	C377.472809,272.885590 384.398376,267.418762 384.862061,261.455078 
	C385.351318,255.161972 385.592224,248.724121 384.834747,242.483871 
	C382.833008,225.992859 377.946655,210.324799 369.950928,195.665863 
	C359.484589,176.477386 345.129333,160.830612 326.769623,149.096649 
	C305.126007,135.263885 281.529602,127.841713 255.545761,128.953720 
	C247.636490,129.292191 241.142578,135.128952 241.000458,142.663254 
	C240.784897,154.092407 245.638977,160.369034 254.900986,161.041046 
	C261.273590,161.503418 267.694489,161.930099 273.962463,163.085342 
	C292.079468,166.424423 307.967438,174.408035 321.992432,187.490738 
z"/>
<path fill="#1ABC9C" opacity="1.000000" stroke="none" 
	d="
M152.531342,1.000001 
	C152.807831,1.204101 152.615677,1.408200 152.423508,1.612299 
	C163.179489,7.745767 162.582291,19.169241 164.902695,29.060587 
	C168.699051,45.243481 171.909805,61.563404 175.400009,77.818558 
	C179.232239,95.666626 183.236099,113.479332 186.879074,131.365723 
	C188.111862,137.418457 185.767990,142.722839 181.433929,147.057983 
	C167.658142,160.837250 153.853714,174.587891 140.118607,188.291458 
	C170.411469,252.980423 235.708115,329.559021 325.889282,374.438782 
	C327.901184,372.172974 330.076691,369.479706 332.501740,367.033875 
	C343.058289,356.386871 353.997742,346.099396 364.182007,335.110382 
	C371.048157,327.701691 378.659180,325.890015 388.176697,328.021942 
	C421.399384,335.463837 454.677338,342.659454 487.944519,349.901642 
	C491.928314,350.768921 495.985382,351.293823 499.989868,352.073303 
	C505.741669,353.192841 509.159271,357.423676 512.769409,361.338135 
	C513.000000,371.354218 513.000000,381.708466 512.634277,392.292603 
	C511.849396,393.358521 511.307922,394.155914 511.029602,395.036438 
	C507.415558,406.469421 504.720245,418.288300 500.057098,429.272858 
	C492.014130,448.218781 479.541138,464.125092 463.919098,477.717651 
	C444.067139,494.990570 421.279297,505.829437 395.634796,511.058228 
	C394.664856,511.255981 393.874176,512.332825 393.000000,513.000000 
	C377.312439,513.000000 361.624878,513.000000 345.743103,512.649780 
	C345.197815,511.953430 344.888550,511.364899 344.489594,511.295990 
	C321.190369,507.272095 299.849182,497.567688 278.685669,487.762848 
	C251.360489,475.103424 225.168747,460.274231 200.522629,442.852020 
	C179.842987,428.233734 160.005417,412.560455 141.650284,395.097168 
	C120.085052,374.579712 100.088196,352.641510 82.235100,328.771118 
	C66.330711,307.506256 51.781570,285.351379 39.541138,261.811157 
	C31.090784,245.559814 23.268652,228.924118 16.222790,212.019623 
	C11.166808,199.889267 7.895442,187.018234 3.730509,174.510056 
	C3.089130,172.583862 1.923288,170.832321 0.999998,169.000000 
	C1.000000,153.312439 1.000000,137.624878 1.362761,121.715073 
	C2.678580,117.940804 3.648282,114.393150 4.582078,110.836075 
	C12.398368,81.061783 27.298826,55.710030 50.870483,35.559467 
	C70.685471,18.620346 93.189186,7.556860 118.862289,2.925533 
	C119.664536,2.780809 120.291382,1.663758 121.000000,1.000001 
	C131.354233,1.000000 141.708450,1.000000 152.531342,1.000001 
M180.193634,305.277771 
	C169.445770,292.005432 158.404755,278.957855 148.015869,265.410248 
	C130.604095,242.704346 116.731171,217.824631 104.550941,191.994995 
	C101.246666,184.987869 102.714073,178.785828 108.327393,173.170959 
	C121.991867,159.502731 135.732666,145.909073 149.229492,132.077301 
	C150.817841,130.449554 152.197266,127.291336 151.775681,125.230911 
	C146.681824,100.335541 141.252045,75.508644 135.856384,50.675503 
	C134.664505,45.189968 133.264206,39.749714 132.139359,35.040020 
	C129.273514,35.040020 127.245285,34.714417 125.356331,35.089760 
	C103.455757,39.441479 84.087845,49.019283 68.082977,64.586922 
	C56.727512,75.632164 47.895828,88.558052 41.798668,103.404305 
	C32.854240,125.183495 30.647388,147.665436 36.901768,170.064911 
	C41.790863,187.574738 48.765823,204.642395 56.267376,221.250031 
	C67.861656,246.918518 81.598099,271.560272 98.228134,294.351471 
	C110.121025,310.650452 122.346931,326.823456 135.757339,341.864075 
	C148.296631,355.927704 162.010635,369.097870 176.271835,381.430634 
	C191.639801,394.720581 207.815262,407.186676 224.404861,418.929474 
	C252.546783,438.849640 283.198486,454.358276 315.035126,467.507294 
	C334.604187,475.589600 354.498199,481.647156 376.206024,480.159332 
	C390.675293,479.167572 404.218445,475.422882 417.107544,469.311310 
	C434.184418,461.214142 448.369171,449.305878 459.423218,433.962524 
	C469.988220,419.298035 476.918793,403.061737 479.060394,384.941772 
	C479.330933,382.652832 478.978455,381.468750 476.517456,380.980072 
	C470.446960,379.774597 464.430664,378.299408 458.372620,377.027679 
	C435.866821,372.303162 413.306213,367.823303 390.882233,362.739685 
	C386.476898,361.740997 383.869415,362.465424 380.887787,365.501740 
	C367.930054,378.696991 354.556854,391.491180 341.810516,404.884033 
	C335.778931,411.221436 327.657349,412.271790 319.522705,408.326843 
	C291.290619,394.635620 264.675812,378.509735 239.677094,359.476929 
	C218.396408,343.274811 199.047073,325.102173 180.193634,305.277771 
z"/>
<path fill="#000000" opacity="1.000000" stroke="none" 
	d="
M0.999998,169.468658 
	C1.923288,170.832321 3.089130,172.583862 3.730509,174.510056 
	C7.895442,187.018234 11.166808,199.889267 16.222790,212.019623 
	C23.268652,228.924118 31.090784,245.559814 39.541138,261.811157 
	C51.781570,285.351379 66.330711,307.506256 82.235100,328.771118 
	C100.088196,352.641510 120.085052,374.579712 141.650284,395.097168 
	C160.005417,412.560455 179.842987,428.233734 200.522629,442.852020 
	C225.168747,460.274231 251.360489,475.103424 278.685669,487.762848 
	C299.849182,497.567688 321.190369,507.272095 344.489594,511.295990 
	C344.888550,511.364899 345.197815,511.953430 345.274475,512.649780 
	C230.406265,513.000000 115.812515,513.000000 1.000000,513.000000 
	C1.000000,398.645874 1.000000,284.291595 0.999998,169.468658 
z"/>
<path fill="#000000" opacity="1.000000" stroke="none" 
	d="
M289.000000,0.999996 
	C363.593719,1.000000 438.187408,1.000000 513.000000,1.000000 
	C513.000000,75.354088 513.000000,149.708389 512.603638,224.723816 
	C511.770905,223.045700 511.313080,220.710205 510.901703,218.366562 
	C507.597717,199.542938 502.912903,181.106918 495.998260,163.245956 
	C484.995605,134.825226 469.228058,109.240952 448.937103,86.673340 
	C431.261169,67.014145 411.219666,50.026932 388.238312,36.495079 
	C358.098267,18.748041 325.994568,7.204011 291.272308,2.919874 
	C290.448456,2.818224 289.754547,1.663523 289.000000,0.999996 
z"/>
<path fill="#1ABC9C" opacity="1.000000" stroke="none" 
	d="
M288.531342,0.999996 
	C289.754547,1.663523 290.448456,2.818224 291.272308,2.919874 
	C325.994568,7.204011 358.098267,18.748041 388.238312,36.495079 
	C411.219666,50.026932 431.261169,67.014145 448.937103,86.673340 
	C469.228058,109.240952 484.995605,134.825226 495.998260,163.245956 
	C502.912903,181.106918 507.597717,199.542938 510.901703,218.366562 
	C511.313080,220.710205 511.770905,223.045700 512.603638,225.192474 
	C513.000000,238.020889 513.000000,251.041794 513.000000,264.531342 
	C512.224121,265.583282 511.238800,266.018097 510.703979,266.772339 
	C503.808868,276.496155 485.462616,275.278046 481.901337,263.418152 
	C480.835205,259.867706 480.105499,256.068451 480.077545,252.376724 
	C479.772552,212.041916 468.243225,175.112900 447.449188,140.701874 
	C436.075439,121.879959 422.236511,105.153687 405.947906,90.665581 
	C377.081299,64.989769 343.776398,47.390575 305.867310,39.016113 
	C291.561981,35.855930 277.139160,33.786697 262.399323,33.857437 
	C256.976196,33.883465 251.296982,33.602180 246.459747,30.000910 
	C238.748917,24.260262 238.564545,8.433000 247.845901,3.006641 
	C248.524353,2.609976 249.069229,1.984830 249.338104,1.232954 
	C262.020905,1.000000 275.041779,1.000000 288.531342,0.999996 
z"/>
<path fill="#000000" opacity="1.000000" stroke="none" 
	d="
M393.468658,513.000000 
	C393.874176,512.332825 394.664856,511.255981 395.634796,511.058228 
	C421.279297,505.829437 444.067139,494.990570 463.919098,477.717651 
	C479.541138,464.125092 492.014130,448.218781 500.057098,429.272858 
	C504.720245,418.288300 507.415558,406.469421 511.029602,395.036438 
	C511.307922,394.155914 511.849396,393.358521 512.634277,392.761230 
	C513.000000,432.926971 513.000000,472.853912 513.000000,513.000000 
	C473.312714,513.000000 433.625000,513.000000 393.468658,513.000000 
z"/>
<path fill="#000000" opacity="1.000000" stroke="none" 
	d="
M120.531342,1.000001 
	C120.291382,1.663758 119.664536,2.780809 118.862289,2.925533 
	C93.189186,7.556860 70.685471,18.620346 50.870483,35.559467 
	C27.298826,55.710030 12.398368,81.061783 4.582078,110.836075 
	C3.648282,114.393150 2.678580,117.940804 1.362761,121.246414 
	C1.000000,81.073029 1.000000,41.146065 1.000000,1.000000 
	C40.687294,1.000000 80.374985,1.000000 120.531342,1.000001 
z"/>
<path fill="#1ABC9C" opacity="1.000000" stroke="none" 
	d="
M247.494171,94.772217 
	C236.999084,87.687767 239.369720,68.949127 250.621094,65.788956 
	C251.547485,65.528755 252.466385,65.066902 253.400314,65.034805 
	C267.626495,64.545753 281.942810,64.614441 295.665710,68.511826 
	C310.984711,72.862495 326.387787,77.472351 340.932678,83.844681 
	C357.001678,90.884727 371.277588,101.210838 384.586395,112.892540 
	C399.853485,126.293129 412.246704,141.847412 422.684235,159.141052 
	C434.122314,178.092514 441.579712,198.531418 446.006165,220.155701 
	C448.636597,233.005966 449.388580,245.980438 449.019318,259.061035 
	C448.815338,266.286804 442.710724,272.780304 435.700531,272.999268 
	C424.510712,273.348755 417.752319,268.610474 416.990997,259.976196 
	C415.510498,243.185425 414.583252,226.410934 409.258392,210.091461 
	C403.814392,193.406570 396.259094,177.959793 386.161316,163.753525 
	C369.595825,140.447952 347.840485,123.312660 321.921753,111.516510 
	C307.765503,105.073700 292.949860,100.569832 277.380127,99.014603 
	C269.528320,98.230293 261.643738,97.766937 253.798477,96.928780 
	C251.763580,96.711380 249.820984,95.629745 247.494171,94.772217 
z"/>
<path fill="#1ABC9C" opacity="1.000000" stroke="none" 
	d="
M321.740356,187.240936 
	C307.967438,174.408035 292.079468,166.424423 273.962463,163.085342 
	C267.694489,161.930099 261.273590,161.503418 254.900986,161.041046 
	C245.638977,160.369034 240.784897,154.092407 241.000458,142.663254 
	C241.142578,135.128952 247.636490,129.292191 255.545761,128.953720 
	C281.529602,127.841713 305.126007,135.263885 326.769623,149.096649 
	C345.129333,160.830612 359.484589,176.477386 369.950928,195.665863 
	C377.946655,210.324799 382.833008,225.992859 384.834747,242.483871 
	C385.592224,248.724121 385.351318,255.161972 384.862061,261.455078 
	C384.398376,267.418762 377.472809,272.885590 371.291931,272.999756 
	C361.262970,273.184967 356.697845,270.848785 353.893066,263.306580 
	C352.721802,260.156952 352.135406,256.625305 352.076630,253.253525 
	C351.723816,233.028839 344.782837,215.197647 332.674500,199.275803 
	C329.477020,195.071243 325.572388,191.404449 321.740356,187.240936 
z"/>
<path fill="#000000" opacity="1.000000" stroke="none" 
	d="
M180.391983,305.573059 
	C199.047073,325.102173 218.396408,343.274811 239.677094,359.476929 
	C264.675812,378.509735 291.290619,394.635620 319.522705,408.326843 
	C327.657349,412.271790 335.778931,411.221436 341.810516,404.884033 
	C354.556854,391.491180 367.930054,378.696991 380.887787,365.501740 
	C383.869415,362.465424 386.476898,361.740997 390.882233,362.739685 
	C413.306213,367.823303 435.866821,372.303162 458.372620,377.027679 
	C464.430664,378.299408 470.446960,379.774597 476.517456,380.980072 
	C478.978455,381.468750 479.330933,382.652832 479.060394,384.941772 
	C476.918793,403.061737 469.988220,419.298035 459.423218,433.962524 
	C448.369171,449.305878 434.184418,461.214142 417.107544,469.311310 
	C404.218445,475.422882 390.675293,479.167572 376.206024,480.159332 
	C354.498199,481.647156 334.604187,475.589600 315.035126,467.507294 
	C283.198486,454.358276 252.546783,438.849640 224.404861,418.929474 
	C207.815262,407.186676 191.639801,394.720581 176.271835,381.430634 
	C162.010635,369.097870 148.296631,355.927704 135.757339,341.864075 
	C122.346931,326.823456 110.121025,310.650452 98.228134,294.351471 
	C81.598099,271.560272 67.861656,246.918518 56.267376,221.250031 
	C48.765823,204.642395 41.790863,187.574738 36.901768,170.064911 
	C30.647388,147.665436 32.854240,125.183495 41.798668,103.404305 
	C47.895828,88.558052 56.727512,75.632164 68.082977,64.586922 
	C84.087845,49.019283 103.455757,39.441479 125.356331,35.089760 
	C127.245285,34.714417 129.273514,35.040020 132.139359,35.040020 
	C133.264206,39.749714 134.664505,45.189968 135.856384,50.675503 
	C141.252045,75.508644 146.681824,100.335541 151.775681,125.230911 
	C152.197266,127.291336 150.817841,130.449554 149.229492,132.077301 
	C135.732666,145.909073 121.991867,159.502731 108.327393,173.170959 
	C102.714073,178.785828 101.246666,184.987869 104.550941,191.994995 
	C116.731171,217.824631 130.604095,242.704346 148.015869,265.410248 
	C158.404755,278.957855 169.445770,292.005432 180.391983,305.573059 
z"/>
</svg>